<?xml version="1.0" encoding="utf-8"?>
<!-- Generator: Adobe Illustrator 16.0.0, SVG Export Plug-In . SVG Version: 6.00 Build 0)  -->
<!DOCTYPE svg PUBLIC "-//W3C//DTD SVG 1.1//EN" "http://www.w3.org/Graphics/SVG/1.1/DTD/svg11.dtd">
<svg version="1.1" id="Layer_1" xmlns="http://www.w3.org/2000/svg" xmlns:xlink="http://www.w3.org/1999/xlink" x="0px" y="0px"
	 width="128px" height="128px" viewBox="0 0 128 128" enable-background="new 0 0 128 128" xml:space="preserve">
<g>
	<g>
		<path fill="#282D33" d="M86.625,91.504h-4c0-1.544-0.844-5.301-1.516-6.563H47.544c-0.67,1.262-1.511,5.018-1.511,6.563h-4
			c0-0.105,0.592-10.563,4.863-10.563h34.862C86.031,80.941,86.625,91.398,86.625,91.504z"/>
	</g>
	<g>
		<path fill="#282D33" d="M61.701,82.837h-4V63.438c-15.952-9.703-25.812-27.229-25.812-46.024c0-5.441,0.815-10.826,2.422-16.006
			L34.747,0h58.511l0.436,1.408c1.605,5.181,2.42,10.565,2.42,16.005c0,19.187-10.271,37.05-26.807,46.617l-2.004-3.462
			c15.305-8.854,24.811-25.391,24.811-43.155c0-4.547-0.613-9.052-1.826-13.413h-52.57c-1.213,4.36-1.828,8.866-1.828,13.413
			c0,17.761,9.508,34.297,24.814,43.155l0.998,0.578V82.837z"/>
	</g>
	<g>
		<path fill="#282D33" d="M45.6,32.666c-1.358-4.695-2.046-9.571-2.046-14.494c0-5.329,0.816-10.62,2.426-15.726l3.814,1.203
			c-1.486,4.715-2.24,9.602-2.24,14.522c0,4.546,0.636,9.048,1.889,13.382L45.6,32.666z"/>
	</g>
	<g>
		<path fill="#282D33" d="M82.531,52.775l-1.283-3.788c16.074-5.449,27.152-21.149,28.049-39.445H93.205v-4h20.164l-0.016,2.016
			C113.191,28.409,100.805,46.581,82.531,52.775z"/>
	</g>
	<g>
		<path fill="#282D33" d="M45.479,52.777C27.206,46.584,14.815,28.412,14.646,7.558L14.63,5.542h20.165v4H18.704
			c0.901,18.298,11.984,33.999,28.059,39.447L45.479,52.777z"/>
	</g>
	<g>
		<path fill="#282D33" d="M97.916,128H30.742v-14.998h67.174V128z M34.742,124h59.174v-6.998H34.742V124z"/>
	</g>
	<g>
		<path fill="#282D33" d="M95.604,117.002H33.055V90.949h62.549V117.002z M37.055,113.002h54.549V94.949H37.055V113.002z"/>
	</g>
	<g>
		<path fill="#282D33" d="M77.371,106.182h-4v-4h4V106.182z M69.371,106.182h-4v-4h4V106.182z M61.371,106.182h-4v-4h4V106.182z
			 M53.371,106.182h-2.084v-4h2.084V106.182z"/>
	</g>
	<g>
		<path fill="#282D33" d="M97.916,128H30.742v-14.998h67.174V128z M34.742,124h59.174v-6.998H34.742V124z"/>
	</g>
	<g>
		<path fill="#282D33" d="M95.604,117.002H33.055V90.949h62.549V117.002z M37.055,113.002h54.549V94.949H37.055V113.002z"/>
	</g>
</g>
</svg>
