<svg xmlns="http://www.w3.org/2000/svg" viewBox="0 0 32 32"><defs><style>.cls-1{fill:#231f20;}</style></defs><g id="presentation"><path class="cls-1" d="M26.72,20.31A4.93,4.93,0,0,0,28,17a1,1,0,0,0-2,0,3,3,0,1,1-1.5-2.6A1,1,0,0,0,25.87,14a1,1,0,0,0,.08-.8A.93.93,0,0,0,26,13V5.59A2.59,2.59,0,0,0,23.41,3H4.59A2.59,2.59,0,0,0,2,5.59V22.41A2.59,2.59,0,0,0,4.59,25H10a1,1,0,0,0,0-2H4.59A.6.6,0,0,1,4,22.41V5.59A.6.6,0,0,1,4.59,5H23.41a.6.6,0,0,1,.59.59v6.52A4.79,4.79,0,0,0,23,12a5,5,0,0,0-5,5,4.92,4.92,0,0,0,1,3h-1.9a1.74,1.74,0,0,1-1.22-.5l-.18-.18a2.76,2.76,0,1,0-3.91,3.91l1.65,1.65A3.8,3.8,0,0,0,16.17,26h1.48a.35.35,0,0,1,.35.35V29a1,1,0,0,0,1,1H29a1,1,0,0,0,1-1V25A5,5,0,0,0,26.72,20.31ZM28,28H26V26a1,1,0,0,0-2,0v2H20V26.35A2.35,2.35,0,0,0,17.65,24H16.17a1.81,1.81,0,0,1-1.29-.53l-1.65-1.65A.79.79,0,0,1,13,21.2a.74.74,0,0,1,.34-.56.76.76,0,0,1,1,.09l.18.18A3.69,3.69,0,0,0,17.13,22H25a3,3,0,0,1,3,3Z"/><path class="cls-1" d="M7,10h7a1,1,0,0,0,0-2H7a1,1,0,0,0,0,2Z"/><path class="cls-1" d="M7,14H17a1,1,0,0,0,0-2H7a1,1,0,0,0,0,2Z"/><path class="cls-1" d="M7,18h5a1,1,0,0,0,0-2H7a1,1,0,0,0,0,2Z"/></g></svg>